<svg width="54" height="49" viewBox="0 0 54 49" fill="none" xmlns="http://www.w3.org/2000/svg">
<path d="M48.5235 28.6096L52.3365 11.6976H14.7606L13.4548 6.07296L2.13089 1.04688L1.14893 2.82358L11.4909 7.36511L16.7141 30.0537H46.9043C46.9043 30.0537 49.8816 31.7544 48.7325 33.9017C48.2206 34.5668 47.4266 35.3839 46.0059 35.3839H15.962V37.3411H46.0164C48.0848 37.3411 49.8293 36.353 50.8113 34.7758C52.7334 31.5074 48.5235 28.6096 48.5235 28.6096ZM18.5736 28.068L15.1994 13.6643H49.7249L46.4551 28.068H18.5736Z" fill="black"/>
<path d="M22.1675 40.1055C19.8798 40.1055 18.0308 41.7777 18.0308 43.8489C18.0308 45.9201 19.8798 47.5923 22.1675 47.5923C24.4553 47.5923 26.3043 45.9201 26.3043 43.8489C26.3043 41.7777 24.4553 40.1055 22.1675 40.1055ZM22.1675 45.6256C21.0811 45.6256 20.2036 44.837 20.2036 43.8489C20.2036 42.8608 21.0707 42.0722 22.1675 42.0722C23.2644 42.0722 24.1315 42.8608 24.1315 43.8489C24.1315 44.837 23.254 45.6256 22.1675 45.6256Z" fill="black"/>
<path d="M44.3868 40.1055C42.099 40.1055 40.25 41.7777 40.25 43.8489C40.25 45.9201 42.099 47.6018 44.3868 47.6018C46.6746 47.6018 48.6385 45.9296 48.5236 43.8584C48.5236 41.7872 46.6746 40.1055 44.3868 40.1055ZM46.3507 43.8584C46.3507 44.8465 45.4837 45.6351 44.3868 45.6351C43.2899 45.6351 42.4229 44.8465 42.4229 43.8584C42.4229 42.8703 43.2899 42.0817 44.3868 42.0817C45.4837 42.0817 46.4552 42.8703 46.3507 43.8584Z" fill="black"/>
</svg>
