<svg width="15" height="16" viewBox="0 0 15 16" fill="none" xmlns="http://www.w3.org/2000/svg">
<g clip-path="url(#clip0_637_2136)">
<path d="M7.50586 5.77175L9.61213 7.87802L9.62216 7.76769C9.62216 6.66105 8.72283 5.76172 7.61619 5.76172L7.50586 5.77175Z" fill="#ABABAB"/>
<path d="M7.61573 4.42554C9.46123 4.42554 10.959 5.92334 10.959 7.76884C10.959 8.20012 10.8721 8.61134 10.7217 8.98913L12.6775 10.9449C13.6872 10.1024 14.4829 9.01254 14.9743 7.76884C13.8142 4.83344 10.9624 2.75391 7.61576 2.75391C6.67963 2.75391 5.78365 2.92106 4.95117 3.22196L6.39547 4.6629C6.77322 4.51581 7.18445 4.42554 7.61573 4.42554Z" fill="#ABABAB"/>
<path d="M0.929389 2.60254L2.45393 4.12708L2.75818 4.43133C1.65489 5.2939 0.782295 6.44065 0.260742 7.76792C1.41753 10.7033 4.27269 12.7828 7.61598 12.7828C8.65241 12.7828 9.64202 12.5823 10.5481 12.2178L10.8322 12.502L12.7814 14.4545L13.6339 13.6053L1.78193 1.75L0.929389 2.60254ZM4.62709 6.29688L5.66016 7.32996C5.63007 7.47373 5.61001 7.61747 5.61001 7.76792C5.61001 8.87456 6.50935 9.77389 7.61598 9.77389C7.76643 9.77389 7.9102 9.75383 8.05062 9.72374L9.0837 10.7568C8.63903 10.9775 8.14424 11.1112 7.61598 11.1112C5.77049 11.1112 4.27269 9.61341 4.27269 7.76792C4.27269 7.23969 4.40643 6.74487 4.62709 6.29688Z" fill="#ABABAB"/>
</g>
<defs>
<clipPath id="clip0_637_2136">
<rect width="14.7138" height="14.7138" fill="white" transform="translate(0.260742 0.746094)"/>
</clipPath>
</defs>
</svg>
