<svg width="18" height="18" viewBox="0 0 18 18" fill="none" xmlns="http://www.w3.org/2000/svg">
<path d="M16 2.45312H2C0.895431 2.45312 0 3.34855 0 4.45312V13.544C0 14.6486 0.89543 15.544 2 15.544H16C17.1046 15.544 18 14.6486 18 13.544V4.45312C18 3.34856 17.1046 2.45312 16 2.45312Z" fill="#3F3F4E"/>
<circle cx="6.5455" cy="9.00107" r="4.09091" fill="#EB001A"/>
<circle cx="11.4547" cy="9.00107" r="4.09091" fill="#F79E1C"/>
<path d="M9.00013 12.2726C9.99375 11.5262 10.6365 10.338 10.6365 8.99959C10.6365 7.66115 9.99375 6.47293 9.00013 5.72656C8.00652 6.47293 7.36377 7.66115 7.36377 8.99959C7.36377 10.338 8.00652 11.5262 9.00013 12.2726Z" fill="#FF5F00"/>
</svg>
