<svg width="18" height="19" viewBox="0 0 18 19" fill="none" xmlns="http://www.w3.org/2000/svg">
<g clip-path="url(#clip0_637_2120)">
<path d="M1.67231 3.59766H16.3984C17.2643 3.59766 17.9688 4.3021 17.9688 5.16798V14.2682C17.9688 15.1341 17.2643 15.8386 16.3984 15.8386H1.67231C0.806431 15.8386 0.101984 15.1341 0.101984 14.2682V5.16798C0.101984 4.3021 0.806431 3.59766 1.67231 3.59766ZM1.87725 4.64454L2.08683 4.81905L8.41233 10.0863C8.77337 10.3869 9.29744 10.3869 9.6584 10.0863L15.9839 4.81905L16.1935 4.64454H1.87725ZM16.9219 5.40032L11.768 9.69193L16.9219 13.122V5.40032ZM1.67231 14.7917H16.3984C16.6514 14.7917 16.8629 14.6113 16.9114 14.3725L10.9286 10.3909L10.3283 10.8908C9.95369 11.2027 9.49449 11.3586 9.03533 11.3586C8.57617 11.3586 8.11701 11.2027 7.7424 10.8908L7.14205 10.3909L1.15933 14.3725C1.20784 14.6114 1.41938 14.7917 1.67231 14.7917ZM1.14886 13.122L6.30273 9.69197L1.14886 5.40032V13.122Z" fill="#000842"/>
</g>
<defs>
<clipPath id="clip0_637_2120">
<rect width="17.8668" height="17.8668" fill="white" transform="matrix(-1 0 0 1 17.9688 0.785156)"/>
</clipPath>
</defs>
</svg>
