<svg width="18" height="19" viewBox="0 0 18 19" fill="none" xmlns="http://www.w3.org/2000/svg">
<g clip-path="url(#clip0_637_2129)">
<path d="M13.6655 8.03961V5.21017C13.6731 3.92991 13.1618 2.6989 12.2489 1.8012C11.3664 0.922449 10.2111 0.441406 8.98767 0.441406C8.96873 0.441406 8.94601 0.441406 8.92707 0.441406C6.31731 0.445194 4.19618 2.58148 4.19618 5.21017V8.03961C3.21137 8.15703 2.4917 8.98276 2.4917 9.98272V16.3385C2.4917 17.4181 3.3553 18.3082 4.43481 18.3082H13.4307C14.5102 18.3082 15.3738 17.4181 15.3738 16.3385V9.98272C15.37 8.98654 14.6503 8.15703 13.6655 8.03961ZM4.94994 5.21017H4.95373C4.95373 2.99813 6.73775 1.18759 8.93085 1.18759H8.93464C9.97627 1.1838 10.9762 1.59667 11.7148 2.33149C12.4838 3.09282 12.9118 4.13066 12.9042 5.21017V8.0434H12.0709V5.21017C12.0785 4.35035 11.7376 3.52463 11.1277 2.91859C10.552 2.34285 9.77173 2.01711 8.95737 2.01711H8.93464C7.19228 2.01711 5.78324 3.44887 5.78324 5.20638V8.0434H4.94994V5.21017ZM11.3171 5.21017V8.0434H6.54458V5.21017C6.54458 3.86931 7.61272 2.77844 8.93843 2.77844H8.96116C9.57477 2.77844 10.1657 3.02464 10.6012 3.46023C11.0634 3.92234 11.3247 4.55489 11.3171 5.21017ZM14.6503 16.3499C14.6503 17.0128 14.1125 17.5506 13.4496 17.5506H4.44996C3.78711 17.5506 3.24925 17.0128 3.24925 16.3499V10.0017C3.24925 9.3388 3.78711 8.80095 4.44996 8.80095H13.4496C14.1125 8.80095 14.6503 9.3388 14.6503 10.0017V16.3499Z" fill="#000842"/>
<path d="M10.2414 12.9417C10.0747 12.3546 9.54068 11.9531 8.93085 11.9531C8.17709 11.9531 7.56348 12.563 7.56348 13.3205C7.56348 13.9303 7.96498 14.4644 8.55208 14.6311V15.6916C8.55208 15.8999 8.72253 16.0704 8.93085 16.0704C9.13918 16.0704 9.30963 15.8999 9.30963 15.6916V14.6311C10.0331 14.4227 10.4535 13.6652 10.2414 12.9417ZM8.93085 13.9265C8.59374 13.9265 8.32102 13.6538 8.32102 13.3167C8.32102 12.9796 8.59374 12.7069 8.93085 12.7069C9.26796 12.7069 9.54068 12.9796 9.54068 13.3167C9.54068 13.6538 9.26796 13.9265 8.93085 13.9265Z" fill="#000842"/>
</g>
<defs>
<clipPath id="clip0_637_2129">
<rect width="17.8668" height="17.8668" fill="white" transform="translate(-0.000488281 0.441406)"/>
</clipPath>
</defs>
</svg>
